<svg width="24" height="24" viewBox="0 0 24 24" fill="none" xmlns="http://www.w3.org/2000/svg">
<path d="M15 12.0116C15.0002 12.1479 14.9725 12.2827 14.9188 12.4069C14.8651 12.5311 14.7866 12.642 14.6886 12.732L10.237 16.8199C10.0895 16.9492 9.89936 17.013 9.70734 16.9978C9.51532 16.9826 9.33661 16.8896 9.20943 16.7387C9.08225 16.5877 9.01669 16.3909 9.02677 16.1901C9.03685 15.9894 9.12177 15.8008 9.26337 15.6645L13.1562 12.0899C13.1669 12.0802 13.1754 12.0681 13.1813 12.0546C13.1872 12.0411 13.1902 12.0264 13.1902 12.0116C13.1902 11.9968 13.1872 11.9821 13.1813 11.9686C13.1754 11.9551 13.1669 11.9431 13.1562 11.9333L9.26337 8.3587C9.18809 8.29277 9.1262 8.21179 9.08133 8.12054C9.03647 8.02928 9.00953 7.92959 9.00211 7.82731C8.99468 7.72503 9.00692 7.62224 9.0381 7.52497C9.06928 7.4277 9.11877 7.33792 9.18367 7.2609C9.24857 7.18388 9.32756 7.12118 9.41601 7.07649C9.50446 7.03179 9.60057 7.006 9.6987 7.00063C9.79683 6.99527 9.895 7.01043 9.98744 7.04523C10.0799 7.08003 10.1647 7.13376 10.237 7.20328L14.687 11.2899C14.7853 11.3802 14.864 11.4912 14.9179 11.6156C14.9719 11.74 14.9999 11.875 15 12.0116V12.0116Z" fill="#828282"/>
</svg>
