<svg width="32" height="32" viewBox="0 0 32 32" fill="none" xmlns="http://www.w3.org/2000/svg">
<path d="M16.7044 11.2583L16.7272 11.2371L16.7482 11.2141C17.2073 10.7114 17.7866 10.3336 18.4318 10.1163C19.0677 9.90212 19.7471 9.85076 20.4077 9.9667C21.0469 10.1411 21.6299 10.4786 22.0994 10.9465C22.5758 11.4212 22.9185 12.0133 23.0929 12.6628L23.8172 12.4684L23.0998 12.6872C23.2931 13.3209 23.3113 13.9951 23.1526 14.6383C22.9951 15.2764 22.6694 15.8604 22.2095 16.3296L16.0228 22.0464L9.84431 16.3492C9.37339 15.8803 9.03712 15.2933 8.87082 14.6497C8.70347 14.0021 8.71447 13.3213 8.90265 12.6794L8.90507 12.6711L8.9073 12.6628C9.08164 12.0133 9.42431 11.4212 9.90071 10.9465C10.3702 10.4786 10.9533 10.1411 11.5924 9.9667C12.2531 9.85076 12.9324 9.90212 13.5684 10.1163C14.2135 10.3336 14.7929 10.7114 15.252 11.2141L15.273 11.2371L15.2958 11.2583C15.4873 11.4359 15.7389 11.5346 16.0001 11.5346C16.2613 11.5346 16.5128 11.4359 16.7044 11.2583Z" stroke="#FF3B30" stroke-width="1.5"/>
</svg>
