<svg width="32" height="32" viewBox="0 0 32 32" fill="none" xmlns="http://www.w3.org/2000/svg">
<path d="M23.8172 12.4684C23.6087 11.6914 23.1987 10.9831 22.6288 10.4152C22.0589 9.84735 21.3493 9.43992 20.5715 9.23411C19.7768 9.08866 18.9581 9.14766 18.1924 9.40555C17.4267 9.66344 16.7392 10.1118 16.1944 10.7084C16.1415 10.7574 16.0721 10.7846 16.0001 10.7846C15.928 10.7846 15.8586 10.7574 15.8058 10.7084C15.261 10.1118 14.5734 9.66344 13.8078 9.40555C13.0421 9.14766 12.2234 9.08866 11.4286 9.23411C10.6509 9.43992 9.94121 9.84735 9.37132 10.4152C8.80142 10.9831 8.39149 11.6914 8.18294 12.4684C7.95669 13.2401 7.94347 14.0587 8.14467 14.8374C8.34587 15.616 8.754 16.3257 9.32579 16.8912L15.6344 22.7084C15.7412 22.804 15.8796 22.8568 16.0229 22.8568C16.1663 22.8568 16.3046 22.804 16.4115 22.7084L22.7315 16.8684C23.2925 16.3011 23.6896 15.5926 23.8807 14.818C24.0719 14.0434 24.0499 13.2315 23.8172 12.4684V12.4684Z" fill="#FF3B30"/>
</svg>
