<svg width="21" height="24" viewBox="0 0 21 24" fill="currentColor" xmlns="http://www.w3.org/2000/svg">
<path d="M18.8985 12.4475V7.63645C18.8985 5.6112 18.094 3.66874 16.6619 2.23664C15.2298 0.804539 13.2873 0 11.262 0H10.1711C8.14587 0 6.20341 0.804539 4.77131 2.23664C3.33921 3.66874 2.53467 5.6112 2.53467 7.63645V12.4475C1.99456 12.7565 1.55384 13.2131 1.26378 13.7639C0.974005 14.3144 0.847133 14.9364 0.89827 15.5566C0.992993 16.3884 1.39405 17.1555 2.02329 17.708C2.65228 18.2605 3.46462 18.5591 4.30207 18.5457H16.3022C19.2477 18.5457 20.4258 16.9965 20.5458 15.5567C20.5957 14.9352 20.4674 14.3126 20.1754 13.7618C19.8837 13.2109 19.4405 12.7551 18.8985 12.4475L18.8985 12.4475Z" fill="currentColor"/>
<path d="M12.8986 20.7275H6.35303C6.35303 22.5602 8.27311 24.0003 10.7167 24.0003C13.1603 24.0003 15.0804 22.5602 15.0804 20.7275H12.8986Z" fill="currentColor"/>
</svg>
