<svg width="24" height="24" viewBox="0 0 24 24" fill="currentColor" xmlns="http://www.w3.org/2000/svg">
<path d="M22.6782 5.3602L15.4331 0.210393C15.0797 -0.0421206 14.6252 -0.0673016 14.2466 0.134674C13.8681 0.33665 13.6155 0.715245 13.6155 1.14435V4.02219L3.39165 4.67862C2.58375 4.72916 1.90229 5.38546 1.85176 6.21852C1.80122 7.12731 2.48286 7.90988 3.39165 7.96041L13.6155 8.59151V11.4693C13.6155 11.8985 13.8681 12.3024 14.2466 12.479C14.6252 12.681 15.0797 12.6558 15.4331 12.4033L22.6782 7.2535C22.9811 7.02634 23.1579 6.69812 23.1579 6.31951C23.1579 5.94074 22.9813 5.58734 22.6782 5.36V5.3602Z" fill="currentColor"/>
<path d="M20.6083 16.0649L10.3844 15.4338V12.556C10.3844 12.1268 10.1319 11.7229 9.75327 11.5463C9.37469 11.3443 8.92022 11.3695 8.5668 11.622L1.32173 16.7718C1.01885 16.999 0.842041 17.3272 0.842041 17.7058C0.842041 18.0844 1.01884 18.4126 1.32173 18.6398L8.5668 23.7896C8.92021 24.0421 9.3747 24.0673 9.75327 23.8653C10.1319 23.6634 10.3844 23.2848 10.3844 22.8557V19.978L20.6083 19.3216C21.4162 19.271 22.0976 18.6147 22.1482 17.7817C22.1733 16.8982 21.4917 16.1154 20.6083 16.0649Z" fill="currentColor"/>
</svg>
