<svg width="20" height="20" viewBox="0 0 20 20" fill="none" xmlns="http://www.w3.org/2000/svg">
<path d="M0.666748 10C0.666748 9.69062 0.789664 9.39387 1.00846 9.17508C1.22725 8.95629 1.524 8.83337 1.83341 8.83337H8.63897C8.69054 8.83337 8.74 8.81289 8.77646 8.77642C8.81293 8.73996 8.83342 8.6905 8.83342 8.63893V1.83337C8.83342 1.52395 8.95633 1.22721 9.17512 1.00842C9.39392 0.789623 9.69066 0.666706 10.0001 0.666706C10.3095 0.666706 10.6062 0.789623 10.825 1.00842C11.0438 1.22721 11.1667 1.52395 11.1667 1.83337V8.63893C11.1667 8.6905 11.1872 8.73996 11.2237 8.77642C11.2602 8.81289 11.3096 8.83337 11.3612 8.83337H18.1667C18.4762 8.83337 18.7729 8.95629 18.9917 9.17508C19.2105 9.39387 19.3334 9.69062 19.3334 10C19.3334 10.3095 19.2105 10.6062 18.9917 10.825C18.7729 11.0438 18.4762 11.1667 18.1667 11.1667H11.3612C11.3096 11.1667 11.2602 11.1872 11.2237 11.2237C11.1872 11.2601 11.1667 11.3096 11.1667 11.3612V18.1667C11.1667 18.4761 11.0438 18.7729 10.825 18.9917C10.6062 19.2105 10.3095 19.3334 10.0001 19.3334C9.69066 19.3334 9.39392 19.2105 9.17512 18.9917C8.95633 18.7729 8.83342 18.4761 8.83342 18.1667V11.3612C8.83342 11.3096 8.81293 11.2601 8.77646 11.2237C8.74 11.1872 8.69054 11.1667 8.63897 11.1667H1.83341C1.524 11.1667 1.22725 11.0438 1.00846 10.825C0.789664 10.6062 0.666748 10.3095 0.666748 10H0.666748Z" fill="#FEFEFE"/>
</svg>
