<svg width="24" height="24" viewBox="0 0 24 24" fill="none" xmlns="http://www.w3.org/2000/svg">
<path d="M19.9413 9.98786C19.8734 9.76411 19.7463 9.56501 19.5748 9.41356C19.4033 9.26211 19.1944 9.16448 18.9721 9.13196L14.884 8.48645L13.0748 4.64687C12.9656 4.4501 12.8088 4.28679 12.6203 4.17327C12.4318 4.05975 12.218 4 12.0005 4C11.7829 4 11.5692 4.05975 11.3807 4.17327C11.1921 4.28679 11.0354 4.4501 10.9262 4.64687L9.07354 8.51873L5.02886 9.13196C4.80715 9.16519 4.59878 9.2627 4.42735 9.41345C4.25593 9.56421 4.1283 9.76217 4.05894 9.98491C3.98958 10.2077 3.98126 10.4463 4.03492 10.6737C4.08858 10.9011 4.20208 11.1083 4.36255 11.2717L7.31464 14.3128L6.6289 18.5349C6.591 18.7654 6.61554 19.0023 6.69974 19.219C6.78394 19.4356 6.92444 19.6233 7.10533 19.7608C7.28622 19.8982 7.50029 19.98 7.72331 19.9968C7.94633 20.0136 8.16938 19.9647 8.36724 19.8558L12.0256 17.8583L15.6452 19.851C15.843 19.9599 16.0661 20.0088 16.2891 19.992C16.5121 19.9752 16.7262 19.8934 16.9071 19.756C17.088 19.6185 17.2285 19.4309 17.3127 19.2142C17.3968 18.9976 17.4214 18.7606 17.3835 18.5301L16.7092 14.2566L19.6384 11.2681C19.7984 11.1058 19.9116 10.8997 19.9651 10.6734C20.0187 10.447 20.0104 10.2095 19.9413 9.98786Z" fill="currentColor"/>
</svg>
