<svg width="113" height="26" viewBox="0 0 113 26" fill="none" xmlns="http://www.w3.org/2000/svg">
<path d="M40.6893 6.99121C39.4928 6.99121 38.2259 7.47654 37.0999 8.44721L37.3345 7.24543H32.6659L29.7803 23.3077H34.5427L35.7392 17.3219C36.4899 18.2925 37.6629 19.0321 39.1878 19.0321C42.7068 19.0321 44.9356 15.5192 44.9356 11.7752C44.9356 9.0481 43.5045 6.99121 40.6893 6.99121ZM38.6952 10.9663C39.6805 10.9663 40.3843 11.7059 40.3843 12.6534C40.3843 13.8783 39.2113 15.057 37.9679 15.057C37.2172 15.057 36.6307 14.6179 36.3961 13.9708L36.748 12.0525C37.1937 11.4054 37.9444 10.9663 38.6952 10.9663Z" fill="#202020"/>
<path d="M68.6897 6.99121C67.4932 6.99121 66.2263 7.47654 65.1003 8.44721L65.3349 7.24543H60.6663L57.7807 23.3077H62.5431L63.7396 17.3219C64.4903 18.2925 65.6633 19.0321 67.1882 19.0321C70.7072 19.0321 72.936 15.5192 72.936 11.7752C72.936 9.0481 71.5049 6.99121 68.6897 6.99121ZM66.6955 10.9663C67.6809 10.9663 68.3847 11.7059 68.3847 12.6534C68.3847 13.8783 67.2117 15.057 65.9683 15.057C65.2176 15.057 64.6311 14.6179 64.3964 13.9708L64.7484 12.0525C65.1941 11.4054 65.9448 10.9663 66.6955 10.9663Z" fill="#202020"/>
<path d="M96.2541 6.99121C92.5943 6.99121 89.2864 10.1343 89.2864 13.7397C89.2864 16.721 91.609 19.0321 94.87 19.0321C96.6999 19.0321 98.5767 18.385 100.125 17.1601L97.8025 14.7334C97.1691 15.2881 96.0664 15.7734 95.0342 15.7503C94.4477 15.7503 93.8846 15.6117 93.697 14.9414L98.5298 14.4099C100.454 14.2481 101.533 13.3005 101.533 11.6828C101.533 8.72454 99.5855 6.99121 96.2541 6.99121ZM96.043 10.2961C96.7468 10.2961 97.3802 10.7583 97.3802 11.3361C97.3802 11.729 96.9814 11.9832 96.5122 12.0294L94.0254 12.2374C94.0723 12.0525 94.1193 11.8677 94.1896 11.7059C94.5181 10.8045 95.2219 10.2961 96.043 10.2961Z" fill="#202020"/>
<path d="M112.677 7.01432C111.457 7.01432 110.026 7.68454 108.689 9.18677L109.088 7.22232H104.372L102.308 18.7779H107.07L108.22 12.8845C109.463 11.6365 110.964 10.7814 112.325 10.7814L112.677 7.01432Z" fill="#202020"/>
<path d="M53.1337 6.99121C49.4739 6.99121 46.1661 10.1343 46.1661 13.7397C46.1661 16.721 48.4886 19.0321 51.7496 19.0321C53.5795 19.0321 55.4563 18.385 57.0047 17.1601L54.6821 14.7334C54.0487 15.2881 52.9461 15.7734 51.9138 15.7503C51.3273 15.7503 50.7643 15.6117 50.5766 14.9414L55.4094 14.4099C57.3331 14.2481 58.4123 13.3005 58.4123 11.6828C58.4123 8.72454 56.4651 6.99121 53.1337 6.99121ZM52.9226 10.2961C53.6264 10.2961 54.2598 10.7583 54.2598 11.3361C54.2598 11.729 53.861 11.9832 53.3918 12.0294L50.905 12.2374C50.9519 12.0525 50.9989 11.8677 51.0692 11.7059C51.3977 10.8045 52.1015 10.2961 52.9226 10.2961Z" fill="#202020"/>
<path d="M83.6846 6.99121C82.4882 6.99121 81.2213 7.47654 80.0952 8.44721L80.3298 7.24543H75.6612L72.7756 23.3077H77.5381L78.7345 17.3219C79.4853 18.2925 80.6583 19.0321 82.1832 19.0321C85.7022 19.0321 87.9309 15.5192 87.9309 11.7752C87.9309 9.0481 86.4999 6.99121 83.6846 6.99121ZM81.6905 10.9663C82.6758 10.9663 83.3796 11.7059 83.3796 12.6534C83.3796 13.8783 82.2066 15.057 80.9632 15.057C80.2125 15.057 79.626 14.6179 79.3914 13.9708L79.7433 12.0525C80.1891 11.4054 80.9398 10.9663 81.6905 10.9663Z" fill="#202020"/>
<path d="M9.1544 8.23953L0 20.4168C4.02879 23.4396 7.10896 21.5197 8.42152 19.7738L14.2297 12.0475C15.2821 10.6474 17.2718 10.3649 18.6732 11.4163C20.0746 12.4676 20.3579 14.4554 19.305 15.8554C18.4579 16.9819 17.0044 17.3849 15.739 16.952C14.8905 16.6614 14.2011 16.0243 13.8472 15.1961L9.85918 20.5014C10.6569 21.3404 11.6077 22.0287 12.6506 22.5299C16.6618 24.4565 21.6056 23.3549 24.3803 19.6638C27.5384 15.4633 26.6895 9.50054 22.4849 6.34598C21.5952 5.67857 20.6262 5.19002 19.6218 4.87488C15.8799 3.70035 11.6436 4.92831 9.15395 8.23998L9.1544 8.23953Z" fill="#2DB783"/>
</svg>
