<svg width="92" height="24" viewBox="0 0 92 24" fill="none" xmlns="http://www.w3.org/2000/svg">
<path d="M37.1364 6.45312C36.0444 6.45312 34.8882 6.90113 33.8604 7.79713L34.0745 6.68779H29.8136L27.1799 21.5145H31.5265L32.6185 15.9891C33.3037 16.8851 34.3743 17.5678 35.766 17.5678C38.9778 17.5678 41.0119 14.3251 41.0119 10.8691C41.0119 8.35179 39.7058 6.45312 37.1364 6.45312ZM35.3164 10.1225C36.2157 10.1225 36.858 10.8051 36.858 11.6798C36.858 12.8105 35.7875 13.8985 34.6526 13.8985C33.9675 13.8985 33.4322 13.4931 33.218 12.8958L33.5392 11.1251C33.946 10.5278 34.6312 10.1225 35.3164 10.1225Z" fill="#202020"/>
<path d="M50.7896 6.66646L50.4684 8.03179C49.7618 7.13579 48.7126 6.47446 47.3209 6.47446C44.0877 6.47446 42.0536 9.69579 42.0536 13.1518C42.0536 15.6691 43.3597 17.5678 45.9291 17.5678C47.0211 17.5678 48.1988 17.1198 49.2051 16.2238L48.9482 17.3545H53.2733L55.1576 6.68779L50.7896 6.66646ZM48.263 10.1225C48.9696 10.1225 49.5049 10.5278 49.6976 11.1251L49.3978 12.8958C48.9696 13.4931 48.2844 13.8985 47.5992 13.8985C46.6999 13.8985 46.079 13.2158 46.079 12.3411C46.079 11.2105 47.1282 10.1225 48.263 10.1225Z" fill="#202020"/>
<path d="M64.5075 6.45312C63.4155 6.45312 62.2593 6.90113 61.2315 7.79713L61.4456 6.68779H57.1847L54.551 21.5145H58.8976L59.9896 15.9891C60.6748 16.8851 61.7454 17.5678 63.1371 17.5678C66.3489 17.5678 68.383 14.3251 68.383 10.8691C68.383 8.35179 67.0769 6.45312 64.5075 6.45312ZM62.6875 10.1225C63.5868 10.1225 64.2291 10.8051 64.2291 11.6798C64.2291 12.8105 63.1586 13.8985 62.0237 13.8985C61.3386 13.8985 60.8033 13.4931 60.5891 12.8958L60.9103 11.1251C61.3171 10.5278 62.0023 10.1225 62.6875 10.1225Z" fill="#202020"/>
<path d="M76.1404 6.45312C72.8002 6.45312 69.7811 9.35446 69.7811 12.6825C69.7811 15.4345 71.9009 17.5678 74.8771 17.5678C76.5473 17.5678 78.2602 16.9705 79.6734 15.8398L77.5536 13.5998C76.9755 14.1118 75.9691 14.5598 75.027 14.5385C74.4917 14.5385 73.9778 14.4105 73.8066 13.7918L78.2174 13.3011C79.9731 13.1518 80.9581 12.2771 80.9581 10.7838C80.9581 8.05312 79.1809 6.45312 76.1404 6.45312ZM75.9477 9.50379C76.5901 9.50379 77.1682 9.93046 77.1682 10.4638C77.1682 10.8265 76.8042 11.0611 76.376 11.1038L74.1063 11.2958C74.1491 11.1251 74.192 10.9545 74.2562 10.8051C74.556 9.97313 75.1983 9.50379 75.9477 9.50379Z" fill="#202020"/>
<path d="M91.1293 6.47446C90.0159 6.47446 88.7098 7.09313 87.4893 8.47979L87.8533 6.66646H83.5496L81.6653 17.3331H86.0119L87.0611 11.8931C88.1959 10.7411 89.5663 9.95179 90.8082 9.95179L91.1293 6.47446Z" fill="#202020"/>
<path d="M8.35508 7.60542L0 18.8459C3.67701 21.6362 6.48824 19.8641 7.68619 18.2524L12.9872 11.1204C13.9477 9.82811 15.7637 9.56731 17.0427 10.5378C18.3218 11.5083 18.5803 13.3431 17.6194 14.6354C16.8462 15.6753 15.5196 16.0473 14.3647 15.6477C13.5903 15.3794 12.9612 14.7913 12.6381 14.0269L8.99832 18.9241C9.72636 19.6986 10.5942 20.3339 11.546 20.7965C15.2069 22.5749 19.7191 21.5581 22.2515 18.1509C25.1339 14.2735 24.3591 8.76943 20.5216 5.85753C19.7096 5.24146 18.8252 4.79048 17.9085 4.49959C14.4934 3.41541 10.6269 4.54891 8.35466 7.60584L8.35508 7.60542Z" fill="#2DB783"/>
</svg>
