<svg width="16" height="16" viewBox="0 0 16 16" fill="none" xmlns="http://www.w3.org/2000/svg">
<path d="M15.9413 5.98786C15.8734 5.76411 15.7463 5.56501 15.5748 5.41356C15.4033 5.26211 15.1944 5.16448 14.9721 5.13196L10.884 4.48645L9.0748 0.646866C8.96555 0.450101 8.80882 0.286789 8.62029 0.173269C8.43175 0.0597487 8.21802 0 8.00048 0C7.78294 0 7.56921 0.0597487 7.38067 0.173269C7.19214 0.286789 7.03541 0.450101 6.92617 0.646866L5.07354 4.51873L1.02886 5.13196C0.807154 5.16519 0.59878 5.2627 0.427353 5.41345C0.255925 5.56421 0.128299 5.76217 0.0589391 5.98491C-0.0104209 6.20765 -0.0187413 6.44626 0.0349209 6.67369C0.0885831 6.90113 0.202082 7.10829 0.362554 7.27171L3.31464 10.3128L2.6289 14.5349C2.591 14.7654 2.61554 15.0023 2.69974 15.219C2.78394 15.4356 2.92444 15.6233 3.10533 15.7608C3.28622 15.8982 3.50029 15.98 3.72331 15.9968C3.94633 16.0136 4.16938 15.9647 4.36724 15.8558L8.02563 13.8583L11.6452 15.851C11.843 15.9599 12.0661 16.0088 12.2891 15.992C12.5121 15.9752 12.7262 15.8934 12.9071 15.756C13.088 15.6185 13.2285 15.4309 13.3127 15.2142C13.3968 14.9976 13.4214 14.7606 13.3835 14.5301L12.7092 10.2566L15.6384 7.26812C15.7984 7.10576 15.9116 6.89969 15.9651 6.67336C16.0187 6.44703 16.0104 6.20952 15.9413 5.98786Z" fill="#A4A8AD"/>
</svg>
